# xmcd CD database file
#
# Track frame offsets:
#	150
#	23855
#	52232
#	81121
#	109869
#	139255
#	158783
#	194159
#	221909
#	250519
#	278450
#	301063
#
# Disc length: 4270 seconds
#
# Revision: 0
# Processed by: cddbd v1.5.1PL0 Copyright (c) Steve Scherf et al.
# Submitted via: CDex 1.51
#
DISCID=aa10ac0c
DTITLE=ケツメイシ - ケツメポリス
DYEAR=1900
DGENRE=Hip-Hop
TTITLE0=さくら
TTITLE1=君にバンプ
TTITLE2=涙
TTITLE3=太陽
TTITLE4=夏の思い出
TTITLE5=はじまりの合図
TTITLE6=花鳥風月
TTITLE7=トモダチ
TTITLE8=手紙
TTITLE9=よるかぜ
TTITLE10=新生活
TTITLE11=こっちおいで
EXTD=
EXTT0=
EXTT1=
EXTT2=
EXTT3=
EXTT4=
EXTT5=
EXTT6=
EXTT7=
EXTT8=
EXTT9=
EXTT10=
EXTT11=
PLAYORDER=
